<?xml version="1.0" standalone="no"?>
<!DOCTYPE svg PUBLIC "-//W3C//DTD SVG 20010904//EN"
 "http://www.w3.org/TR/2001/REC-SVG-20010904/DTD/svg10.dtd">
<svg version="1.0" xmlns="http://www.w3.org/2000/svg"
 width="32.000000pt" height="32.000000pt" viewBox="0 0 32.000000 32.000000"
 preserveAspectRatio="xMidYMid meet">
<metadata>
Created by potrace 1.10, written by Peter Selinger 2001-2011
</metadata>
<g transform="translate(0.000000,32.000000) scale(0.100000,-0.100000)"
fill="#000000" stroke="none">
<path d="M70 241 c0 -5 16 -21 35 -35 19 -15 35 -31 35 -37 0 -5 -18 -26 -40
-46 -22 -21 -40 -41 -40 -45 0 -4 17 -8 37 -8 27 0 45 8 66 28 l28 27 27 -33
c15 -18 30 -32 35 -32 4 0 7 17 7 37 0 32 -8 46 -57 95 -50 50 -62 58 -95 58
-21 0 -38 -4 -38 -9z"/>
</g>
</svg>
